<svg width="64" height="64" viewBox="0 0 64 64" fill="none" xmlns="http://www.w3.org/2000/svg">
<path fill-rule="evenodd" clip-rule="evenodd" d="M63.9984 57.8668L53.5987 60.5334L47.9988 41.3339V64H15.9996V41.6006L10.3997 60.8001L0 58.1335L9.59976 12.5346L21.3328 6.13476C23.4661 -0.265083 30.6659 0.00157788 31.9992 0.00157788C34.1325 0.00157788 40.5323 0.268238 42.6656 6.13476L54.3987 12.2679C54.3987 12.5346 63.9984 57.8668 63.9984 57.8668Z" fill="#E8E7DF"/>
<path fill-rule="evenodd" clip-rule="evenodd" d="M28.5326 8.5347C29.066 9.33468 30.6659 10.9346 31.9992 11.7346C33.3325 10.9346 34.9325 9.60134 35.4658 8.5347C34.9325 8.26804 34.1325 8.00138 31.9992 8.00138C29.8659 8.00138 29.066 8.26804 28.5326 8.5347ZM31.9992 5.33478C43.9989 5.8681 35.4658 13.6012 31.9992 14.6679C28.5326 13.6012 19.9995 5.60144 31.9992 5.33478ZM31.9992 31.7341C31.1992 31.7341 30.3993 32.5341 30.3993 33.3341C30.3993 34.1341 31.1992 34.9341 31.9992 34.9341C32.7992 34.9341 33.5992 34.1341 33.5992 33.3341C33.5992 32.5341 32.7992 31.7341 31.9992 31.7341ZM31.9992 39.7339C31.1992 39.7339 30.3993 40.5339 30.3993 41.3339C30.3993 42.1339 31.1992 42.9339 31.9992 42.9339C32.7992 42.9339 33.5992 42.1339 33.5992 41.3339C33.5992 40.5339 32.7992 39.7339 31.9992 39.7339ZM31.9992 23.7343C31.1992 23.7343 30.3993 24.5343 30.3993 25.3343C30.3993 26.1343 31.1992 26.9342 31.9992 26.9342C32.7992 26.9342 33.5992 26.1343 33.5992 25.3343C33.5992 24.5343 32.7992 23.7343 31.9992 23.7343ZM55.4653 57.3335L61.0652 56.0002L52.2654 14.1346L43.4656 9.60134C43.7323 14.6679 41.3323 19.7344 38.9324 24.5343C38.9324 24.5343 33.0659 19.4678 31.9992 18.4011C30.6659 19.4678 25.066 24.5343 25.066 24.5343C22.6661 19.4678 20.2662 14.6679 20.5328 9.60134L11.733 14.1346L3.19992 56.2669L8.79978 57.6002L15.9996 31.7341L18.6662 32.0008V61.3334H45.3322V32.0008L47.9988 31.7341L55.4653 57.3335ZM25.866 20.2677C27.9993 18.4011 31.9992 15.2012 31.9992 15.2012C31.9992 15.2012 35.9991 18.1345 38.1324 20.2677C43.4656 8.5347 40.799 2.66818 32.2659 2.66818H31.9992C23.1994 2.66818 20.5328 8.5347 25.866 20.2677ZM63.9984 57.8668L53.5987 60.5334L47.9988 41.3339V64H15.9996V41.6006L10.3997 60.8001L0 58.1335L9.59976 12.5346L21.3328 6.13476C23.4661 -0.265083 30.6659 0.00157788 31.9992 0.00157788C34.1325 0.00157788 40.5323 0.268238 42.6656 6.13476L54.3987 12.2679C54.3987 12.5346 63.9984 57.8668 63.9984 57.8668ZM31.9992 47.7337C31.1992 47.7337 30.3993 48.5337 30.3993 49.3337C30.3993 50.1337 31.1992 50.9337 31.9992 50.9337C32.7992 50.9337 33.5992 50.1337 33.5992 49.3337C33.5992 48.5337 32.7992 47.7337 31.9992 47.7337ZM33.5992 57.3335C33.5992 58.1335 32.7992 58.9335 31.9992 58.9335C31.1992 58.9335 30.3993 58.1335 30.3993 57.3335C30.3993 56.5335 31.1992 55.7335 31.9992 55.7335C32.7992 55.7335 33.5992 56.5335 33.5992 57.3335Z" fill="#475156"/>
</svg>
