<svg width="64" height="64" viewBox="0 0 64 64" fill="none" xmlns="http://www.w3.org/2000/svg">
<path fill-rule="evenodd" clip-rule="evenodd" d="M48.5333 0H15.4667L0 14.6667L9.6 26.1333L13.3333 23.7333V64H50.6667V24L54.4 26.4L64 14.6667L48.5333 0Z" fill="#E8E7DF"/>
<path fill-rule="evenodd" clip-rule="evenodd" d="M53.8667 22.6667L48 18.9333V61.3333H16V19.2L10.1333 22.6667L3.73333 14.9333L16.5333 2.66667H20.2667C21.6 7.46667 25.6 12 32 12C38.4 12 42.4 7.46667 43.7333 2.66667H47.4667L60.2667 14.9333L53.8667 22.6667ZM40.8 2.66667C39.4667 6.13333 36.5333 9.33333 32 9.33333C27.4667 9.33333 24.2667 6.13333 23.2 2.66667H40.8ZM48.5333 0H15.4667L0 14.6667L9.6 26.1333L13.3333 23.7333V64H50.6667V24L54.4 26.4L64 14.6667L48.5333 0Z" fill="#475156"/>
</svg>
