<svg width="64" height="64" viewBox="0 0 64 64" fill="none" xmlns="http://www.w3.org/2000/svg">
<path fill-rule="evenodd" clip-rule="evenodd" d="M0 0V64H10.6667L16 26.6667L21.3333 64H32V0H0Z" fill="#E8E7DF"/>
<path fill-rule="evenodd" clip-rule="evenodd" d="M14.9333 4C14.9333 3.46667 15.4667 2.93333 16 2.93333C16.5333 2.93333 17.0667 3.46667 17.0667 4C17.0667 4.53333 16.5333 5.06667 16 5.06667C15.4667 5.06667 14.9333 4.53333 14.9333 4ZM23.7333 61.3333L17.6 18.6667H14.4L8.26667 61.3333H2.66667V17.3333C4.53333 17.0667 6.13333 16.2667 7.46667 15.2C9.6 13.6 10.9333 10.9333 11.7333 8H20.2667C20.8 10.9333 22.4 13.6 24.2667 15.2C25.6 16.2667 27.2 17.0667 29.0667 17.3333V61.3333H23.7333ZM9.06667 8C8.53333 10.1333 7.46667 12 5.86667 13.0667C5.06667 13.8667 4 14.4 2.66667 14.6667V8H9.06667ZM29.3333 8V14.6667C28 14.4 26.9333 13.8667 26.1333 13.3333C24.5333 12 23.4667 10.1333 22.9333 8H29.3333ZM29.3333 5.33333H2.66667V2.66667H29.3333V5.33333ZM0 0V64H10.6667L16 26.6667L21.3333 64H32V0H0Z" fill="#475156"/>
</svg>
