<svg width="64" height="64" viewBox="0 0 64 64" fill="none" xmlns="http://www.w3.org/2000/svg">
<path fill-rule="evenodd" clip-rule="evenodd" d="M62.2667 56.5333L54.2667 6.66667L40.9333 3.2L39.6 0H24.6667L23.3333 2.93333L9.73333 6.93333L2 56.2667L12.1333 58.4V59.2L12.6667 59.7333C12.9333 60 18 64 29.4667 64H30.2667L31.6 61.3333L32.4 64H33.4667C45.2 64 50 59.7333 50.2667 59.7333L50.8 59.2V58.4L62.2667 56.5333Z" fill="#E8E7DF"/>
<path fill-rule="evenodd" clip-rule="evenodd" d="M62.2667 56.5333L54.2667 6.66667L40.9333 3.2L39.6 0H24.6667L23.3333 2.93333L9.73333 6.93333L2 56.2667L12.1333 58.4V59.2L12.6667 59.7333C12.9333 60 18 64 29.4667 64H30.2667L31.6 61.3333L32.4 64H33.4667C45.2 64 50 59.7333 50.2667 59.7333L50.8 59.2V58.4L62.2667 56.5333ZM59.3333 54.1333L50.5333 55.7333L46.8 32L52.4 11.7333L59.3333 54.1333ZM41.2 16L34.2667 25.6L39.3333 5.33333L42.5333 11.4667L39.8667 12.8L41.2 16ZM22 11.4667L24.9333 5.33333L29.7333 25.3333L23.0667 16L24.6667 12.8L22 11.4667ZM36.9333 4H27.6L27.3333 2.66667H37.2L36.9333 4ZM36.1333 6.66667L32.1333 23.4667L28.1333 6.66667H36.1333ZM4.93333 54.4L11.0667 14.4L16.1333 32L12.6667 55.7333L4.93333 54.4ZM16.6667 46.6667H21.4667V49.3333H16.1333L16.6667 46.6667ZM28.6667 61.3333C20.6667 61.0667 16.4 58.9333 14.8 58.1333L15.6 52H23.8667V44H16.9333L18.8 32L12.4 8.8L21.4667 6.13333L18.2667 12.5333L20.9333 13.8667L19.8667 16L30.5333 30.6667L28.1333 34.1333V50.6667L30.5333 57.6L28.6667 61.3333ZM34.5333 61.3333L33.4667 57.8667L31.0667 50.4V34.9333L44.4 16L43.3333 13.8667L46 12.5333L42.8 5.86667L50.8 8L44.4 31.4667V31.7333L46.2667 43.7333H39.0667V51.7333H47.3333L48.1333 57.8667C46.5333 58.9333 42.2667 61.0667 34.5333 61.3333ZM46.2667 46.6667L46.8 49.3333H41.4667V46.6667H46.2667ZM35.6 38.6667C35.6 39.4667 35.0667 40 34.2667 40C33.4667 40 32.9333 39.4667 32.9333 38.6667C32.9333 37.8667 33.4667 37.3333 34.2667 37.3333C35.0667 37.3333 35.6 37.8667 35.6 38.6667ZM35.6 46.6667C35.6 47.4667 35.0667 48 34.2667 48C33.4667 48 32.9333 47.4667 32.9333 46.6667C32.9333 45.8667 33.4667 45.3333 34.2667 45.3333C35.0667 45.3333 35.6 45.8667 35.6 46.6667Z" fill="#475156"/>
</svg>
