<svg width="462" height="100" viewBox="0 0 462 100" fill="none" xmlns="http://www.w3.org/2000/svg">
<path d="M62.209 0H80.9153C79.1751 5.01089 78.9576 11.5468 78.9576 18.3007V58.8235C78.9576 82.1351 67.4294 99.7821 40.4576 99.7821C8.70057 99.7821 1.95763 79.3028 1.95763 57.0806V18.3007C1.95763 11.7647 1.74011 5.01089 0 0H20.2288C18.4887 5.01089 18.2712 11.5468 18.2712 18.3007V55.5556C18.2712 69.7168 20.2288 86.9281 41.9802 86.9281C62.6441 86.9281 64.1667 69.7168 64.1667 55.5556V18.3007C64.1667 11.5468 63.9492 5.01089 62.209 0ZM299.952 47.2767C299.952 74.5098 260.364 73.4205 250.576 71.6776C250.794 80.1743 256.232 88.671 267.977 88.671C279.723 88.671 287.989 82.5708 292.557 78.8671L290.164 93.2462C287.336 95.207 278.636 99.7821 264.932 99.7821C246.008 99.7821 234.915 88.2353 234.915 70.8061C234.915 47.0588 253.404 28.7582 275.59 28.7582C289.076 28.7582 299.952 34.6405 299.952 47.2767ZM285.161 49.4553C285.161 43.7909 281.028 40.305 273.85 40.305C262.322 40.305 253.621 50.1089 251.229 61.6558C254.492 62.5272 285.161 64.9237 285.161 49.4553ZM381.302 69.0632C378.91 82.3529 378.475 89.9782 381.52 98.4749H366.946C365.859 95.4248 365.641 90.6318 366.294 85.8388C362.379 93.4641 354.983 100 343.455 100C328.881 100 316.483 89.7603 316.483 71.024C316.483 47.2767 334.754 28.976 357.593 28.976C365.206 28.976 370.427 30.9368 373.907 33.1155L388.48 29.8475L381.302 69.0632ZM369.992 46.1874C367.164 43.3551 361.726 40.5229 355.201 40.5229C341.28 40.5229 332.144 54.6841 332.144 69.4989C332.144 81.9172 338.669 88.2353 346.935 88.2353C353.46 88.2353 358.898 84.3137 362.379 77.5599C366.511 69.281 369.992 46.1874 369.992 46.1874ZM456.997 28.5403C447.427 28.5403 437.856 33.9869 431.548 45.7516C433.071 39.8693 433.506 34.6405 433.071 30.5011H418.062C418.715 35.2941 418.28 41.1765 417.192 47.2767L411.102 81.4815C409.797 89.1068 407.839 94.7712 406.099 98.4749H425.24C424.588 94.7712 425.023 89.7603 426.328 81.9172L427.198 76.6885C431.766 49.4553 443.511 42.9194 454.17 42.9194C456.127 42.9194 458.52 43.3551 459.607 43.573L462 29.4118C461.13 28.976 458.955 28.5403 456.997 28.5403ZM208.596 16.5577C208.596 16.5577 191.847 71.8954 190.542 77.1242C189.02 71.024 170.314 0 170.314 0H158.785C158.785 0 137.034 71.024 135.729 76.4706C134.206 70.1525 121.59 15.4684 121.59 15.4684C120.068 8.7146 119.198 3.7037 119.198 0H96.3588C99.404 3.92157 102.449 8.49673 105.929 19.6078L127.246 98.2571H142.254C142.254 98.2571 162.701 31.5904 163.571 28.1046C164.223 31.5904 181.842 98.2571 181.842 98.2571H196.85L222.299 20.0436C225.345 9.58606 228.172 3.26797 230.347 0H211.641C211.641 3.7037 210.771 8.061 208.596 16.5577Z" fill="#475156"/>
</svg>
