<svg width="550" height="118" viewBox="0 0 550 118" fill="none" xmlns="http://www.w3.org/2000/svg">
<path d="M74.0584 0H96.3277C94.2561 5.91285 93.9972 13.6253 93.9972 21.5948V69.4118C93.9972 96.9194 80.2731 117.743 48.1638 117.743C10.3578 117.743 2.33051 93.5773 2.33051 67.3551V21.5948C2.33051 13.8824 2.07156 5.91285 0 0H24.0819C22.0104 5.91285 21.7514 13.6253 21.7514 21.5948V65.5556C21.7514 82.2658 24.0819 102.575 49.9765 102.575C74.5763 102.575 76.3889 82.2658 76.3889 65.5556V21.5948C76.3889 13.6253 76.1299 5.91285 74.0584 0ZM357.086 55.7865C357.086 87.9216 309.958 86.6362 298.305 84.5795C298.564 94.6057 305.038 104.632 319.021 104.632C333.004 104.632 342.844 97.4335 348.282 93.0632L345.433 110.03C342.067 112.344 331.709 117.743 315.396 117.743C292.867 117.743 279.661 104.118 279.661 83.5512C279.661 55.5294 301.671 33.9346 328.084 33.9346C344.138 33.9346 357.086 40.8758 357.086 55.7865ZM339.477 58.3573C339.477 51.6732 334.557 47.5599 326.012 47.5599C312.288 47.5599 301.93 59.1285 299.082 72.7538C302.966 73.7821 339.477 76.61 339.477 58.3573ZM453.931 81.4946C451.083 97.1765 450.565 106.174 454.19 116.2H436.841C435.546 112.601 435.287 106.946 436.064 101.29C431.403 110.288 422.599 118 408.875 118C391.525 118 376.766 105.917 376.766 83.8083C376.766 55.7865 398.517 34.1917 425.706 34.1917C434.769 34.1917 440.984 36.5054 445.127 39.0763L462.477 35.22L453.931 81.4946ZM440.466 54.5011C437.1 51.159 430.626 47.817 422.858 47.817C406.285 47.817 395.41 64.5272 395.41 82.0087C395.41 96.6623 403.178 104.118 413.018 104.118C420.786 104.118 427.26 99.4902 431.403 91.5207C436.323 81.7516 440.466 54.5011 440.466 54.5011ZM544.044 33.6776C532.651 33.6776 521.257 40.1046 513.748 53.9869C515.56 47.0457 516.078 40.8758 515.56 35.9913H497.693C498.47 41.6471 497.952 48.5882 496.657 55.7865L489.407 96.1481C487.853 105.146 485.523 111.83 483.451 116.2H506.238C505.461 111.83 505.979 105.917 507.533 96.6623L508.569 90.4924C514.007 58.3573 527.99 50.6449 540.678 50.6449C543.008 50.6449 545.857 51.159 547.152 51.4161L550 34.7059C548.964 34.1917 546.375 33.6776 544.044 33.6776ZM248.329 19.5381C248.329 19.5381 228.39 84.8366 226.836 91.0065C225.024 83.8083 202.754 0 202.754 0H189.03C189.03 0 163.136 83.8083 161.582 90.2353C159.769 82.78 144.75 18.2527 144.75 18.2527C142.938 10.2832 141.902 4.37037 141.902 0H114.713C118.338 4.62745 121.963 10.0261 126.106 23.1373L151.483 115.943H169.35C169.35 115.943 193.691 37.2767 194.727 33.1634C195.504 37.2767 216.478 115.943 216.478 115.943H234.346L264.642 23.6514C268.267 11.3115 271.634 3.85621 274.223 0H251.954C251.954 4.37037 250.918 9.51198 248.329 19.5381Z" fill="#D8D8D2"/>
</svg>
