<svg width="465" height="100" viewBox="0 0 465 100" fill="none" xmlns="http://www.w3.org/2000/svg">
<path d="M62.5168 0H81.3156C79.5668 5.01089 79.3483 11.5468 79.3483 18.3007V58.8235C79.3483 82.1351 67.763 99.7821 40.6578 99.7821C8.74361 99.7821 1.96731 79.3028 1.96731 57.0806V18.3007C1.96731 11.7647 1.74872 5.01089 0 0H20.3289C18.5802 5.01089 18.3616 11.5468 18.3616 18.3007V55.5556C18.3616 69.7168 20.3289 86.9281 42.1879 86.9281C62.954 86.9281 64.4841 69.7168 64.4841 55.5556V18.3007C64.4841 11.5468 64.2655 5.01089 62.5168 0ZM301.436 47.2767C301.436 74.5098 261.652 73.4205 251.816 71.6776C252.035 80.1743 257.499 88.671 269.303 88.671C281.107 88.671 289.413 82.5708 294.004 78.8671L291.599 93.2462C288.758 95.207 280.014 99.7821 266.243 99.7821C247.226 99.7821 236.077 88.2353 236.077 70.8061C236.077 47.0588 254.658 28.7582 276.954 28.7582C290.506 28.7582 301.436 34.6405 301.436 47.2767ZM286.572 49.4553C286.572 43.7909 282.419 40.305 275.205 40.305C263.62 40.305 254.876 50.1089 252.472 61.6558C255.751 62.5272 286.572 64.9237 286.572 49.4553ZM383.189 69.0632C380.784 82.3529 380.347 89.9782 383.407 98.4749H368.762C367.669 95.4248 367.45 90.6318 368.106 85.8388C364.171 93.4641 356.739 100 345.154 100C330.508 100 318.049 89.7603 318.049 71.024C318.049 47.2767 336.41 28.976 359.362 28.976C367.013 28.976 372.259 30.9368 375.757 33.1155L390.402 29.8475L383.189 69.0632ZM371.822 46.1874C368.98 43.3551 363.516 40.5229 356.958 40.5229C342.968 40.5229 333.787 54.6841 333.787 69.4989C333.787 81.9172 340.345 88.2353 348.651 88.2353C355.209 88.2353 360.674 84.3137 364.171 77.5599C368.325 69.281 371.822 46.1874 371.822 46.1874ZM459.258 28.5403C449.64 28.5403 440.022 33.9869 433.683 45.7516C435.213 39.8693 435.65 34.6405 435.213 30.5011H420.13C420.786 35.2941 420.349 41.1765 419.256 47.2767L413.136 81.4815C411.824 89.1068 409.857 94.7712 408.108 98.4749H427.344C426.688 94.7712 427.125 89.7603 428.437 81.9172L429.311 76.6885C433.902 49.4553 445.706 42.9194 456.416 42.9194C458.384 42.9194 460.788 43.3551 461.881 43.573L464.286 29.4118C463.411 28.976 461.225 28.5403 459.258 28.5403ZM209.628 16.5577C209.628 16.5577 192.797 71.8954 191.485 77.1242C189.955 71.024 171.156 0 171.156 0H159.571C159.571 0 137.712 71.024 136.4 76.4706C134.87 70.1525 122.192 15.4684 122.192 15.4684C120.662 8.7146 119.787 3.7037 119.787 0H96.8355C99.8957 3.92157 102.956 8.49673 106.453 19.6078L127.875 98.2571H142.958C142.958 98.2571 163.505 31.5904 164.38 28.1046C165.036 31.5904 182.741 98.2571 182.741 98.2571H197.824L223.399 20.0436C226.459 9.58606 229.301 3.26797 231.487 0H212.688C212.688 3.7037 211.814 8.061 209.628 16.5577Z" fill="white"/>
</svg>
