<svg width="48" height="48" viewBox="0 0 48 48" fill="none" xmlns="http://www.w3.org/2000/svg">
<path d="M24.011 4.40974C30.3831 4.40974 31.1548 4.40974 33.6904 4.56408C35.1968 4.57507 36.6895 4.85122 38.1001 5.37988C39.1285 5.78007 40.0619 6.39087 40.8403 7.17307C41.6187 7.95527 42.2249 8.89158 42.6201 9.92191C43.1576 11.3308 43.4413 12.8238 43.458 14.3316C43.5682 16.8452 43.5903 17.6169 43.5903 24.011C43.5903 30.4051 43.5903 31.1768 43.458 33.6904C43.4395 35.1981 43.1559 36.6907 42.6201 38.1001C42.2226 39.1291 41.6155 40.0642 40.8374 40.8461C40.0593 41.628 39.1272 42.2396 38.1001 42.6422C36.6895 43.1708 35.1968 43.447 33.6904 43.458C31.1548 43.5903 30.4051 43.6123 24.011 43.6123C17.6169 43.6123 16.8452 43.6123 14.3096 43.458C12.8032 43.447 11.3105 43.1708 9.89986 42.6422C8.89324 42.227 7.98251 41.6097 7.22402 40.8284C6.46552 40.0472 5.87539 39.1186 5.49012 38.1001C4.96499 36.6878 4.68174 35.197 4.65227 33.6904C4.40974 31.1548 4.40974 30.3831 4.40974 24.011C4.40974 17.639 4.40974 16.8452 4.54203 14.3096C4.57149 12.803 4.85475 11.3122 5.37988 9.89986C5.78131 8.90648 6.37863 8.0041 7.13624 7.24649C7.89385 6.48888 8.79624 5.89156 9.78962 5.49012C11.202 4.96499 12.6928 4.68174 14.1994 4.65227C16.8452 4.40974 17.639 4.40974 24.011 4.40974ZM24.011 0C17.5067 0 16.6909 0 14.1332 0.242536C12.1441 0.274064 10.1752 0.646962 8.31236 1.34497C6.70455 1.95573 5.24444 2.90032 4.02829 4.11648C2.81213 5.33264 1.86754 6.79274 1.25678 8.40055C0.553338 10.2627 0.173045 12.2313 0.132292 14.2214C0 16.7791 0 17.639 0 24.0992C0 30.5595 0 31.4194 0.132292 33.977C0.224885 35.9336 0.634436 37.8623 1.34497 39.6876C1.95573 41.2955 2.90032 42.7556 4.11648 43.9717C5.33264 45.1879 6.79274 46.1325 8.40055 46.7432C10.2627 47.4467 12.2313 47.827 14.2214 47.8677C16.7791 47.9779 17.5949 48 24.0992 48C30.6036 48 31.4194 48 33.977 47.8677C35.9303 47.8166 37.8609 47.4365 39.6876 46.7432C41.2976 46.1362 42.7596 45.1929 43.9762 43.9762C45.1929 42.7596 46.1362 41.2976 46.7432 39.6876C47.4483 37.826 47.8287 35.8571 47.8677 33.8668C47.9779 31.3091 48 30.4933 48 24.011C48 17.5287 48 16.6909 47.8677 14.1332C47.8287 12.1429 47.4483 10.174 46.7432 8.31236C46.1362 6.70242 45.1929 5.24039 43.9762 4.02375C42.7596 2.80711 41.2976 1.86382 39.6876 1.25678C37.8609 0.563511 35.9303 0.183351 33.977 0.132292C31.4194 0 30.6036 0 24.0992 0H24.011Z" fill="#E8E7DF"/>
<path d="M23.9893 11.711C21.555 11.7066 19.1742 12.4245 17.148 13.7737C15.1219 15.1229 13.5415 17.0429 12.6069 19.2906C11.6724 21.5383 11.4256 24.0128 11.8978 26.4008C12.37 28.7888 13.54 30.9831 15.2598 32.706C16.9795 34.4288 19.1717 35.6027 21.5589 36.0793C23.9461 36.5558 26.421 36.3134 28.6703 35.3829C30.9197 34.4523 32.8425 32.8754 34.1954 30.8517C35.5483 28.828 36.2704 26.4484 36.2704 24.0141C36.2733 22.3995 35.9578 20.8001 35.3419 19.3076C34.726 17.815 33.8218 16.4586 32.6812 15.3158C31.5405 14.1731 30.1856 13.2665 28.6942 12.6479C27.2027 12.0293 25.6039 11.711 23.9893 11.711ZM23.9893 31.9958C22.4044 32.0001 20.854 31.5339 19.5344 30.6561C18.2148 29.7783 17.1856 28.5285 16.5771 27.0652C15.9685 25.6018 15.8082 23.9907 16.1163 22.4361C16.4244 20.8815 17.1872 19.4533 18.3078 18.3327C19.4285 17.212 20.8566 16.4493 22.4112 16.1412C23.9658 15.833 25.5769 15.9934 27.0403 16.6019C28.5037 17.2104 29.7535 18.2397 30.6312 19.5592C31.509 20.8788 31.9753 22.4293 31.9709 24.0141C31.9651 26.1292 31.1223 28.156 29.6267 29.6516C28.1311 31.1472 26.1044 31.9899 23.9893 31.9958Z" fill="#E8E7DF"/>
<path d="M36.7946 14.1127C38.3898 14.1127 39.683 12.8195 39.683 11.2243C39.683 9.62911 38.3898 8.33594 36.7946 8.33594C35.1994 8.33594 33.9062 9.62911 33.9062 11.2243C33.9062 12.8195 35.1994 14.1127 36.7946 14.1127Z" fill="#E8E7DF"/>
</svg>
