<svg width="36" height="36" viewBox="0 0 36 36" fill="none" xmlns="http://www.w3.org/2000/svg">
<path d="M17.701 3.25087C22.3985 3.25087 22.9674 3.25087 24.8366 3.36465C25.9472 3.37275 27.0476 3.57633 28.0875 3.96606C28.8456 4.26108 29.5337 4.71136 30.1076 5.288C30.6814 5.86464 31.1283 6.55489 31.4197 7.31446C31.8159 8.3531 32.025 9.45373 32.0373 10.5653C32.1186 12.4183 32.1348 12.9872 32.1348 17.701C32.1348 22.4147 32.1348 22.9836 32.0373 24.8366C32.0237 25.9481 31.8146 27.0485 31.4197 28.0875C31.1266 28.8461 30.679 29.5354 30.1054 30.1118C29.5318 30.6882 28.8446 31.1391 28.0875 31.4359C27.0476 31.8256 25.9472 32.0292 24.8366 32.0373C22.9674 32.1348 22.4147 32.1511 17.701 32.1511C12.9872 32.1511 12.4183 32.1511 10.5491 32.0373C9.43855 32.0292 8.33812 31.8256 7.2982 31.4359C6.55612 31.1298 5.88473 30.6747 5.32556 30.0988C4.7664 29.5229 4.33135 28.8383 4.04733 28.0875C3.6602 27.0463 3.45139 25.9473 3.42967 24.8366C3.25087 22.9674 3.25087 22.3985 3.25087 17.701C3.25087 13.0035 3.25087 12.4183 3.3484 10.5491C3.37012 9.43843 3.57893 8.33941 3.96606 7.2982C4.262 6.56588 4.70234 5.90064 5.26086 5.34213C5.81937 4.78362 6.48461 4.34327 7.21693 4.04733C8.25814 3.6602 9.35716 3.45139 10.4678 3.42967C12.4183 3.25087 13.0035 3.25087 17.701 3.25087ZM17.701 0C12.906 0 12.3045 0 10.419 0.178798C8.95267 0.202041 7.5012 0.476942 6.12789 0.991515C4.94261 1.44177 3.86622 2.13812 2.96966 3.03468C2.07311 3.93123 1.37675 5.00763 0.926498 6.19291C0.407922 7.56567 0.127569 9.01691 0.0975261 10.4841C0 12.3696 0 13.0035 0 17.766C0 22.5285 0 23.1624 0.0975261 25.0479C0.165786 26.4904 0.467708 27.9121 0.991515 29.2578C1.44177 30.4431 2.13812 31.5195 3.03468 32.416C3.93123 33.3126 5.00763 34.009 6.19291 34.4592C7.56567 34.9778 9.01691 35.2581 10.4841 35.2882C12.3696 35.3695 12.971 35.3857 17.766 35.3857C22.561 35.3857 23.1624 35.3857 25.0479 35.2882C26.4879 35.2505 27.9111 34.9703 29.2578 34.4592C30.4447 34.0117 31.5225 33.3163 32.4194 32.4194C33.3163 31.5225 34.0117 30.4447 34.4592 29.2578C34.979 27.8854 35.2594 26.434 35.2882 24.9667C35.3695 23.0812 35.3857 22.4798 35.3857 17.701C35.3857 12.9222 35.3857 12.3045 35.2882 10.419C35.2594 8.95176 34.979 7.5003 34.4592 6.12789C34.0117 4.94104 33.3163 3.86323 32.4194 2.96632C31.5225 2.06941 30.4447 1.37402 29.2578 0.926498C27.9111 0.415422 26.4879 0.135167 25.0479 0.0975261C23.1624 0 22.561 0 17.766 0H17.701Z" fill="#475156"/>
<path d="M17.6838 8.63332C15.8893 8.6301 14.1341 9.15931 12.6404 10.154C11.1468 11.1486 9.98172 12.564 9.29274 14.2211C8.60377 15.8781 8.42183 17.7022 8.76996 19.4627C9.11809 21.2232 9.98063 22.8408 11.2484 24.1109C12.5162 25.381 14.1323 26.2464 15.8921 26.5977C17.652 26.949 19.4765 26.7703 21.1347 26.0843C22.793 25.3983 24.2105 24.2358 25.2078 22.7439C26.2052 21.252 26.7375 19.4978 26.7375 17.7032C26.7396 16.5129 26.507 15.3339 26.053 14.2336C25.599 13.1332 24.9324 12.1333 24.0915 11.2908C23.2506 10.4484 22.2518 9.78004 21.1523 9.32404C20.0528 8.86803 18.8742 8.63331 17.6838 8.63332ZM17.6838 23.5873C16.5155 23.5905 15.3725 23.2468 14.3997 22.5997C13.4269 21.9526 12.6681 21.0313 12.2195 19.9525C11.7709 18.8737 11.6527 17.686 11.8799 16.5399C12.107 15.3938 12.6693 14.341 13.4954 13.5148C14.3216 12.6887 15.3744 12.1264 16.5205 11.8993C17.6666 11.6721 18.8543 11.7903 19.9331 12.2389C21.0119 12.6875 21.9332 13.4463 22.5803 14.4191C23.2274 15.3919 23.5711 16.5349 23.5679 17.7032C23.5636 19.2625 22.9423 20.7566 21.8398 21.8592C20.7372 22.9617 19.2431 23.583 17.6838 23.5873Z" fill="#475156"/>
<path d="M27.1254 10.4039C28.3014 10.4039 29.2547 9.45057 29.2547 8.27458C29.2547 7.09859 28.3014 6.14526 27.1254 6.14526C25.9494 6.14526 24.9961 7.09859 24.9961 8.27458C24.9961 9.45057 25.9494 10.4039 27.1254 10.4039Z" fill="#475156"/>
</svg>
