<svg width="61" height="48" viewBox="0 0 61 48" fill="none" xmlns="http://www.w3.org/2000/svg">
<path d="M19.1155 48C42.0493 48 54.5984 29.5276 54.5984 13.5354C54.5984 13.0157 54.5984 12.4961 54.5741 11.9764C57.0061 10.2756 59.1219 8.12598 60.8 5.69291C58.5626 6.66142 56.1549 7.29921 53.6256 7.6063C56.2035 6.11811 58.1734 3.73228 59.1219 0.897638C56.7142 2.29134 54.039 3.28346 51.1936 3.82677C48.9318 1.46457 45.673 0 42.0979 0C35.2154 0 29.6218 5.43307 29.6218 12.1181C29.6218 13.063 29.7434 13.9843 29.9379 14.8819C19.5776 14.3622 10.3846 9.54331 4.23168 2.22047C3.1616 4.01575 2.5536 6.09449 2.5536 8.31496C2.5536 12.5197 4.76672 16.2283 8.09856 18.4016C6.05568 18.3307 4.1344 17.7874 2.432 16.8898C2.432 16.937 2.432 16.9843 2.432 17.0551C2.432 22.9134 6.73664 27.8268 12.4275 28.937C11.3818 29.2205 10.2874 29.3622 9.14432 29.3622C8.34176 29.3622 7.56352 29.2913 6.8096 29.1496C8.3904 33.9685 13.0112 37.4646 18.4589 37.5591C14.1786 40.8189 8.80384 42.7559 2.96704 42.7559C1.96992 42.7559 0.9728 42.7087 0 42.5906C5.52064 45.9921 12.087 48 19.1155 48Z" fill="#E8E7DF"/>
</svg>
