<svg width="45" height="35" viewBox="0 0 45 35" fill="none" xmlns="http://www.w3.org/2000/svg">
<path d="M14.148 35C31.122 35 40.41 21.5305 40.41 9.86959C40.41 9.49065 40.41 9.11171 40.392 8.73278C42.192 7.49262 43.758 5.9252 45 4.15108C43.344 4.85728 41.562 5.32234 39.69 5.54626C41.598 4.46112 43.056 2.72146 43.758 0.654528C41.976 1.67077 39.996 2.39419 37.89 2.79035C36.216 1.06791 33.804 0 31.158 0C26.064 0 21.924 3.96161 21.924 8.83612C21.924 9.5251 22.014 10.1969 22.158 10.8514C14.49 10.4724 7.686 6.95866 3.132 1.61909C2.34 2.92815 1.89 4.4439 1.89 6.06299C1.89 9.12894 3.528 11.8332 5.994 13.4178C4.482 13.3661 3.06 12.97 1.8 12.3155C1.8 12.3499 1.8 12.3844 1.8 12.436C1.8 16.7077 4.986 20.2904 9.198 21.0999C8.424 21.3066 7.614 21.4099 6.768 21.4099C6.174 21.4099 5.598 21.3583 5.04 21.2549C6.21 24.7687 9.63 27.3179 13.662 27.3868C10.494 29.7638 6.516 31.1762 2.196 31.1762C1.458 31.1762 0.72 31.1417 0 31.0556C4.086 33.5359 8.946 35 14.148 35Z" fill="#475156"/>
</svg>
